<?xml version="1.0" encoding="UTF-8" standalone="no"?>
<!-- Created with Inkscape (http://www.inkscape.org/) -->

<svg
   width="470"
   height="100"
   viewBox="305 360 475 105"
   version="1.1"
   id="svg1"
   xml:space="preserve"
   inkscape:version="1.4 (e7c3feb1, 2024-10-09)"
   sodipodi:docname="LOGO FINAL LUCIE NEOUZE.svg"
   inkscape:export-filename="LOGO FINAL LUCIE NEOUZE.pdf"
   inkscape:export-xdpi="96"
   inkscape:export-ydpi="96"
   xmlns:inkscape="http://www.inkscape.org/namespaces/inkscape"
   xmlns:sodipodi="http://sodipodi.sourceforge.net/DTD/sodipodi-0.dtd"
   xmlns="http://www.w3.org/2000/svg"
   xmlns:svg="http://www.w3.org/2000/svg"><sodipodi:namedview
     id="namedview1"
     pagecolor="#ffffff"
     bordercolor="#000000"
     borderopacity="0.25"
     inkscape:showpageshadow="2"
     inkscape:pageopacity="0.0"
     inkscape:pagecheckerboard="0"
     inkscape:deskcolor="#d1d1d1"
     inkscape:document-units="mm"
     showguides="true"
     inkscape:zoom="0.82438569"
     inkscape:cx="428.19763"
     inkscape:cy="440.93439"
     inkscape:window-width="1512"
     inkscape:window-height="842"
     inkscape:window-x="0"
     inkscape:window-y="38"
     inkscape:window-maximized="0"
     inkscape:current-layer="layer1" /><defs
     id="defs1" /><g
     inkscape:label="Calque 1"
     inkscape:groupmode="layer"
     id="layer1"><path
       d="m 569.26312,381.2911 c -782.53813,-103.81421 -782.53813,-103.81421 0,0 z m -4.55787,16.84009 c -2.5825,6.74697 -14.40903,-2.52875 -17.13393,-5.43698 -4.50398,-4.62843 -8.38987,7.31481 -8.38987,7.31481 0,0 -3.73388,0.0667 -3.61096,-0.29849 1.12578,-3.34388 5.62902,-12.67616 7.77312,-16.92404 0,0 2.02378,0.41151 3.18751,0.68136 1.21513,4.55681 7.67963,12.96278 11.62664,14.31104 2.02993,0.69338 2.89146,-1.90488 2.89146,-1.90488 0.95906,-2.77936 1.4638,-3.89706 2.29166,-6.34725 1.11856,-3.31052 1.66622,-4.93549 1.66622,-4.93549 0.5213,-1.3062 -0.59819,-2.09188 -0.0346,-3.62058 0.25414,-0.68919 5.53795,0.56934 5.57462,0.9791 -1.64021,5.2147 -3.16202,9.2271 -5.05049,14.48765 -0.21162,0.58946 -0.79449,1.693 -0.7914,1.69375 z"
       style="fill:#28220b;stroke-width:0.219649"
       id="path1-2-1-1-4"
       sodipodi:nodetypes="cccccsccscscscsc" /></g><path
     d="m 335.3177,402.00568 c 0,0 -4.5185,-2.54367 -5.38185,-5.48138 -0.83597,-2.84453 3.82616,-7.93617 5.6636,-10.03295 3.7157,-4.2404 5.34775,-6.0933 9.76332,-11.17861 0,0 1.64947,0.0385 2.76671,0.45901 0,0 -1.8485,2.79959 -4.46903,6.83899 -3.41521,5.21335 -6.61597,10.06705 -9.4238,15.27283 -1.67298,3.10171 7.05166,-1.41811 10.46439,-3.1435 4.52357,-2.24853 8.50459,-4.24561 8.50459,-4.24561 1.93184,-0.35648 2.6847,-0.50369 4.92911,-0.95963 0.14018,0.65226 -0.55287,1.93718 -1.08777,2.21627 -6.90919,3.60507 -12.63445,6.55756 -19.81223,10.17404 -0.16038,0.0808 -1.91718,0.0775 -1.91704,0.0805 z"
     style="fill:#000000;stroke-width:0.253556"
     id="path1-2-0-4-7"
     sodipodi:nodetypes="scssccscscscs" /><path
     d="m 473.72546,383.47334 c 0,0 -1.33344,4.00604 -2.23251,6.73292 -0.84074,2.45958 -6.62979,2.0618 -8.4031,3.78447 -2.68736,2.61055 -4.19072,4.19575 -8.13042,7.69739 0,0 -3.10456,-0.29887 -4.52245,-0.492 0,0 3.78716,-3.39663 7.80874,-6.95856 4.49335,-4.28608 8.78969,-8.17485 9.66114,-8.9812 4.64827,-4.30115 3.71136,-2.73427 5.8186,-1.78302 z"
     style="fill:#000000;stroke-width:0.234761"
     id="path1-2-0-4-8-9-1"
     sodipodi:nodetypes="ccssccsc" /><path
     d="m 464.76996,446.34576 c 13.80536,-25.60452 33.36101,-39.17837 36.46038,-48.01027 0.24502,-0.69825 -4.16827,0.85694 -5.37203,1.20072 -1.51421,0.43244 -2.56762,0.99771 -4.70705,-0.89794 -2.09543,-1.85665 -2.49983,-2.298 -3.53861,-3.5121 -0.79127,-0.92482 -0.91637,-0.12782 -0.70096,3.9366 0.0401,0.75553 0.0399,0.75572 -0.68873,1.19822 -0.6633,0.55583 -2.3503,-0.5829 -2.3503,-0.5829 0.032,0 1.38546,-10.91352 1.85788,-14.88061 0.0899,-0.755 0.52354,-1.33724 1.06287,-1.53507 0.32648,-0.11976 0.46345,0.31146 0.98303,0.19194 1.30924,-0.30115 12.51869,-3.06032 12.52542,-3.06682 0.12356,-0.11964 -0.53169,1.26989 -0.6678,1.56549 -0.69657,1.51252 -17.44925,6.66276 -7.54051,6.47742 2.30384,-0.0431 3.35722,-0.29419 5.31353,-1.26666 0.66825,-0.33219 1.44198,-0.60318 1.4443,-0.60397 0,0 2.52259,2.2023 3.0951,2.79808 -0.50926,0.59761 -2.88816,1.56852 -2.90535,1.56728 -0.009,0 -8.86164,3.48662 -6.47088,4.79417 1.77512,0.29785 3.56579,0.78297 5.32925,0.14454 0.76626,-0.27742 2.16758,-0.85739 2.16758,-0.85739 0,0 0.003,0 8.20305,-3.22808 1.11335,-0.46955 2.13977,3.26423 2.13977,3.26423 0.007,0.008 -8.87481,8.69079 -14.21784,14.39952 -0.77848,0.83175 -2.13056,2.41063 -3.05526,3.46099 -6.37335,7.23971 -18.83858,22.26528 -28.08887,33.545 -0.0635,0.0773 -0.22332,-0.0461 -0.27797,-0.10237 z"
     style="fill:#000000;stroke-width:0.226923"
     id="path1-2-8-7"
     sodipodi:nodetypes="ssssssccssscsssccccscccsssss" /><path
     d="m 563.81404,445.63711 c 13.80535,-25.45354 33.36101,-38.94736 36.46035,-47.72718 0.24504,-0.69413 -4.16824,0.85188 -5.37203,1.19364 -1.51421,0.42989 -2.56762,0.99183 -4.70706,-0.89264 -2.09539,-1.84571 -2.49983,-2.28446 -3.5386,-3.4914 -0.79127,-0.91936 -0.91637,-0.12706 -0.70093,3.91339 0.0401,0.75108 0.0399,0.75126 -0.68872,1.19116 -0.66334,0.55256 -2.35034,-0.57945 -2.35034,-0.57945 0.0321,0 1.38549,-10.84918 1.85792,-14.79288 0.0899,-0.75055 0.52353,-1.32936 1.06283,-1.52602 0.32652,-0.11905 0.46348,0.30962 0.98306,0.1908 1.30924,-0.29937 12.5187,-3.04227 12.52542,-3.04873 0.12357,-0.11893 -0.53172,1.2624 -0.66784,1.55625 -0.69657,1.50362 -17.44924,6.62348 -7.54049,6.43924 2.30387,-0.0429 3.3572,-0.29245 5.31355,-1.25919 0.66821,-0.33024 1.44198,-0.59964 1.44431,-0.60042 0,0 2.52254,2.18931 3.0951,2.78158 -0.50927,0.5941 -2.88816,1.55928 -2.90539,1.55804 -0.009,0 -8.86165,3.46607 -6.47085,4.7659 1.77508,0.2961 3.5658,0.77836 5.32925,0.14369 0.76626,-0.27579 2.16755,-0.85234 2.16755,-0.85234 0,0 0.003,0 8.20305,-3.20903 1.11335,-0.46679 2.13981,3.24498 2.13981,3.24498 0.007,0.008 -8.87482,8.63955 -14.21784,14.3146 -0.77848,0.82685 -2.13061,2.39643 -3.05527,3.44059 -6.37338,7.19703 -18.83862,22.134 -28.0889,33.3472 -0.0635,0.0768 -0.22329,-0.0458 -0.27794,-0.10176 z"
     style="fill:#000000;stroke-width:0.226253"
     id="path1-2-8-1-9"
     sodipodi:nodetypes="ssssssccssscsssccccscccsssss" /><path
     style="fill:#000000;stroke:none;stroke-width:0.288556"
     d="m 373.16268,388.38118 4.10824,-0.87503 c 0,0 -0.0263,-0.29073 -0.17894,1.28571 -0.15263,1.57644 -0.74177,5.93 -0.72502,6.85957 0.0119,0.6516 0.42224,0.75392 0.91948,0.88905 0.63583,0.1728 1.1533,0.34648 2.41566,-0.40606 1.26237,-0.75257 10.95455,-9.01363 12.52634,-10.38517 1.00545,-0.87735 2.91194,-0.27042 2.91194,-0.27042 l 2.80804,15.88812 c 0,0 -0.44186,0.16496 -1.30246,0.22342 -1.15777,0.0786 -2.79499,-0.16657 -2.79499,-0.16657 0,0 -0.15523,-2.58254 -0.77593,-5.32261 -0.90139,-3.97903 -2.11582,-6.36864 -2.54898,-6.23027 0,0 -4.72326,4.17009 -7.0462,5.98 -2.1726,1.69274 -7.33858,5.46083 -7.83461,5.6541 -0.49603,0.19325 -1.55937,0.0367 -2.56489,0.008 -1.00551,-0.029 -1.84533,-0.58641 -1.84533,-0.58641 0,0 0.29715,-1.28741 0.33737,-1.85751 0.0403,-0.57009 1.59028,-10.68768 1.59028,-10.68768 z"
     id="path5-73"
     sodipodi:nodetypes="ccsssssccscscssscscc" /><path
     style="fill:#000000;stroke:none;stroke-width:0.288556"
     d="m 659.6328,385.78349 4.10823,-0.87502 c 0,0 -0.0263,-0.29073 -0.17894,1.28571 -0.15263,1.57644 -0.74176,5.93 -0.72501,6.85957 0.012,0.65161 0.42224,0.75392 0.91947,0.88906 0.63584,0.1728 1.1533,0.34648 2.41568,-0.40607 1.26237,-0.75257 10.95455,-9.01363 12.52634,-10.38517 1.00544,-0.87735 2.91194,-0.27042 2.91194,-0.27042 l 2.80803,15.88812 c 0,0 -0.44186,0.16496 -1.30245,0.22342 -1.15778,0.0786 -2.795,-0.16657 -2.795,-0.16657 0,0 -0.15522,-2.58254 -0.77592,-5.32261 -0.9014,-3.97903 -2.11583,-6.36864 -2.54899,-6.23027 0,0 -4.72326,4.17009 -7.0462,5.98 -2.1726,1.69274 -7.33858,5.46083 -7.83461,5.6541 -0.49604,0.19324 -1.55937,0.0367 -2.56489,0.008 -1.00552,-0.029 -1.84537,-0.58641 -1.84537,-0.58641 0,0 0.29718,-1.28741 0.3374,-1.8575 0.0403,-0.5701 1.59029,-10.6877 1.59029,-10.6877 z"
     id="path5-73-6"
     sodipodi:nodetypes="ccsssssccscscssscscc" /><path
     d="m 429.95257,399.1975 c -2.01676,0.49477 -4.84666,1.10061 -6.45536,1.43848 -4.29518,0.90213 -6.75356,1.52133 -9.76266,-0.83237 -2.632,-2.13988 1.39303,-7.60346 5.67336,-10.56026 5.22462,-3.6091 10.3485,-5.6601 13.39048,-6.21782 0.1569,-0.0979 0.96073,1.13514 0.77227,1.3768 -13.61864,5.28747 -20.38305,15.92498 -6.88013,12.63965 0.92889,-0.22723 3.70721,-0.98709 3.70721,-0.98709 0,0 0.19783,0.0635 8.26646,-3.65581 1.35595,-0.38446 2.86381,3.9642 2.86381,3.9642 -6.16145,1.50715 -8.79833,2.15299 -11.57544,2.83422 z"
     style="fill:#000000;stroke-width:0.222639"
     id="path1-2-8-1-1-9"
     sodipodi:nodetypes="sscscsscccs" /><path
     d="m 712.31892,445.61642 c 13.80536,-25.22579 33.36102,-38.59886 36.46035,-47.30011 0.24503,-0.68793 -4.16825,0.84426 -5.37204,1.18295 -1.51419,0.42605 -2.5676,0.98296 -4.70705,-0.88465 -2.09543,-1.82919 -2.4998,-2.26402 -3.53859,-3.46016 -0.79126,-0.91113 -0.91636,-0.12592 -0.70097,3.87837 0.0403,0.74437 0.0399,0.74455 -0.68872,1.18051 -0.66331,0.54761 -2.35031,-0.57428 -2.35031,-0.57428 0.032,0 1.38546,-10.75209 1.85789,-14.66051 0.0899,-0.74384 0.52356,-1.31745 1.06285,-1.51237 0.32653,-0.11798 0.4635,0.30687 0.98303,0.18911 1.30924,-0.29669 12.51871,-3.01504 12.52548,-3.02145 0.12351,-0.11787 -0.53173,1.2511 -0.66787,1.54232 -0.69654,1.49016 -17.44923,6.56421 -7.54048,6.38162 2.30388,-0.0424 3.3572,-0.28983 5.31354,-1.24792 0.66825,-0.32729 1.44197,-0.59427 1.44431,-0.59504 0,0 2.52255,2.16972 3.09509,2.75669 -0.50923,0.58877 -2.88812,1.54532 -2.90537,1.54409 -0.009,0 -8.86166,3.43505 -6.4709,4.72326 1.77515,0.29345 3.56582,0.77139 5.32931,0.1424 0.76625,-0.27332 2.16753,-0.84471 2.16753,-0.84471 0,0 0.004,0 8.20306,-3.18032 1.11335,-0.4626 2.13977,3.21595 2.13977,3.21595 0.007,0.008 -8.87479,8.56224 -14.21781,14.18651 -0.77848,0.81946 -2.13058,2.37499 -3.05527,3.4098 -6.37335,7.13263 -18.83861,21.93594 -28.08889,33.04881 -0.0635,0.0761 -0.22332,-0.0454 -0.27794,-0.10085 z"
     style="fill:#000000;stroke-width:0.225238"
     id="path1-2-7-28"
     sodipodi:nodetypes="ssssssccssscsssccccscccsssss" /><path
     d="m 767.23813,404.25951 c -0.27414,-0.6017 0.0304,-1.13182 0.53744,-2.07319 0.14082,-0.2615 0.24995,-0.46004 0.57619,-0.62281 5.99151,-2.98953 11.87231,-6.69132 14.2456,-8.13831 0.69685,-0.42485 0.82075,-0.27207 1.09578,-0.0232 0.46168,0.41776 0.70501,1.01663 0.70501,1.73499 0,0.99455 -0.17817,1.41723 -0.99819,1.8172 -3.69357,1.80157 -7.26294,3.63467 -10.92479,5.63988 -1.99681,1.09341 -4.8649,2.48215 -5.23704,1.66543 z"
     style="fill:#000000;stroke-width:0.223557"
     id="path1-10-3" /><path
     d="m 700.06816,400.8458 c 0,0 -4.28122,-2.47709 -5.00068,-4.90491 -0.69667,-2.35081 5.24843,-7.42404 6.85441,-9.01729 7.04514,-6.94856 -2.25349,-1.37848 -3.24948,-3.97401 -0.21882,-0.57013 -0.27582,-1.89989 0.24494,-1.94161 4.76942,-0.38206 5.68767,-0.45869 11.9686,-0.44329 0,0 0.086,1.64138 0.0915,2.55212 0,0 -3.14731,2.9533 -4.21658,3.9143 -0.69612,0.62564 -2.77637,2.40851 -3.4307,2.97299 -0.65436,0.56445 -2.01072,1.88507 -3.01415,2.85495 -1.62037,1.56615 -1.78543,1.88411 -2.13869,2.76649 -0.45015,1.12446 1.00784,1.82659 1.00784,1.82659 2.12057,-0.0676 6.8979,-0.72308 10.278,-1.46559 4.50813,-0.99032 8.42105,-2.53905 8.42105,-2.53905 1.88845,-0.0921 2.62473,-0.1346 4.82035,-0.2749 0.98989,-0.0633 -0.61421,1.48936 -1.14433,1.65865 -6.84758,2.187 -12.5204,3.97157 -19.62904,6.14096 -0.15884,0.0485 -1.863,-0.12883 -1.863,-0.1264 z"
     style="fill:#000000;stroke-width:0.223557"
     id="path1-7-9" /><path
     d="m 622.33403,400.72989 c -0.85131,-0.28813 -1.61303,-0.73036 -2.10593,-1.54785 -0.60807,-1.01184 -0.61452,-2.07725 -0.19842,-3.1561 0.38404,-0.99844 0.7212,-2.80206 1.41893,-3.57935 1.20338,-1.34014 2.60245,-2.44876 4.05545,-3.48066 1.53628,-1.08552 3.13011,-1.94907 4.80718,-2.77325 2.09314,-1.03193 3.91261,-1.6509 6.10179,-2.42153 1.53624,-0.54277 3.61042,-0.87662 5.27531,-0.93117 1.27103,-0.0136 2.34511,0.0859 3.48453,0.4544 1.16497,0.37525 1.9459,1.15255 2.17635,2.44579 0.16641,0.94484 0.0126,1.86284 -0.31366,2.75402 -0.42248,1.13918 -1.0882,2.12421 -1.85631,3.0288 -1.61307,1.88964 -3.55259,3.36381 -5.59449,4.70399 -1.81787,1.19272 -3.70619,2.23804 -5.69691,3.08903 -1.84349,0.79073 -3.74459,1.40051 -5.7225,1.68864 -0.7553,0.11394 -1.52983,0.13399 -2.29155,0.19432 -1.17207,0.0453 -2.41918,-0.15404 -3.53977,-0.46908 z m 7.19041,-1.76893 c 4.26523,-1.17685 6.56763,-4.71081 9.68761,-7.32355 1.38266,-1.14586 4.59765,-1.30753 5.55137,-2.88219 1.29311,-2.13346 3.38608,-3.9689 0.0549,-4.02846 -1.6871,-0.0336 -2.46708,-0.0255 -3.75367,0.0806 -1.38266,0.35514 -2.63134,0.66824 -3.95634,1.21103 -3.97842,1.63729 -18.92654,10.51173 -13.41688,13.03371 1.80336,0.79642 3.97599,0.39166 5.83295,-0.0911 z"
     id="path1-8-8"
     sodipodi:nodetypes="ccccccccccccccccccccccccc"
     style="stroke-width:0.065492;fill:#000000" /></svg>
